<svg version="1.0" xmlns="http://www.w3.org/2000/svg" viewBox="0 0 750 750">
<g fill="#000">
  <path d="M100 695 c0 -24 40 -71 88 -104 72 -49 107 -86 127 -135 19 -46 31 -159 21 -209 -6 -31 -12 -37 -39 -42 -48 -8 -109 -9 -133 -1 -19 7 -23 2 -36 -53 -16 -63 -12 -71 25 -47 24 16 193 43 204 33 3 -4 1 -18 -5 -32 -26 -57 -6 -81 51 -62 25 8 31 18 39 72 3 18 11 20 65 18 34 -2 84 -12 112 -23 28 -11 51 -16 51 -11 0 11 -76 127 -89 135 -6 4 -24 0 -40 -9 -46 -23 -80 -20 -91 11 -13 32 -12 129 1 219 23 166 23 192 0 204 -24 13 -85 5 -99 -13 -6 -6 -13 -26 -17 -43 -6 -32 -5 -33 24 -33 20 0 34 -7 41 -19 6 -11 10 -89 10 -180 0 -154 -1 -161 -20 -161 -19 0 -20 7 -20 110 0 130 -21 200 -80 264 -53 57 -190 137 -190 111z"/>
  <path d="M579 546 c-70 -85 -125 -201 -115 -243 10 -38 24 -27 41 35 9 31 37 97 62 145 25 48 44 89 42 91 -2 2 -16 -11 -30 -28z"/>
  <path d="M170 506 c0 -2 18 -34 39 -71 22 -37 45 -89 51 -116 14 -59 26 -69 42 -35 16 36 -3 92 -52 155 -34 43 -80 82 -80 67z"/>
</g>
</svg>
