<svg xmlns="http://www.w3.org/2000/svg">
    <symbol id="icon-jm-action" viewBox="0 0 14 14">
        <path fill="currentColor" d="M9,5v3l5-4L9,0v3c0,0-5,0-5,7C6,5,9,5,9,5z M11,12H2V5h1l2-2H0v11h13V7l-2,2V12z"/>
    </symbol>
    <symbol id="icon-jm-back" viewBox="0 0 14 14">
        <path fill="currentColor" d="M5,3V0L1,4l4,4V5c0,0,6,0,6,3s-5,4-5,4v2c0,0,7-1,7-6C13,4,8,3,5,3z"/>
    </symbol>
    <symbol id="icon-jm-forward" viewBox="0 0 14 14">
        <path fill="currentColor" d="M13,4L9,0v3C6,3,1,4,1,8c0,5,7,6,7,6v-2c0,0-5-1-5-4s6-3,6-3v3L13,4z"/>
    </symbol>
    <symbol id="icon-jm-bars" viewBox="0 0 14 14">
        <path fill="currentColor" d="M1,4h12c0.553,0,1-0.447,1-1s-0.447-1-1-1H1C0.447,2,0,2.447,0,3S0.447,4,1,4z M13,6H1C0.447,6,0,6.447,0,7
	c0,0.553,0.447,1,1,1h12c0.553,0,1-0.447,1-1C14,6.447,13.553,6,13,6z M13,10H1c-0.553,0-1,0.447-1,1s0.447,1,1,1h12
	c0.553,0,1-0.447,1-1S13.553,10,13,10z"/>
    </symbol>
    <symbol id="icon-jm-pen" viewBox="0 0 14 14">
        <path fill="currentColor" d="M1,10l-1,4l4-1l7-7L8,3L1,10z M11,0L9,2l3,3l2-2L11,0z"/>
    </symbol>
    <symbol id="icon-jm-forbidden" viewBox="0 0 14 14">
        <path fill="currentColor" d="M12.601,11.187C13.476,10.018,14,8.572,14,7c0-3.866-3.134-7-7-7C5.428,0,3.982,0.524,2.813,1.399L2.757,1.343L2.053,2.048
	L2.048,2.053L1.343,2.758l0.056,0.056C0.524,3.982,0,5.428,0,7c0,3.866,3.134,7,7,7c1.572,0,3.018-0.524,4.187-1.399l0.056,0.057
	l0.705-0.705l0.005-0.005l0.705-0.705L12.601,11.187z M7,2c2.761,0,5,2.238,5,5c0,1.019-0.308,1.964-0.832,2.754L4.246,2.832
	C5.036,2.308,5.981,2,7,2z M7,12c-2.761,0-5-2.238-5-5c0-1.019,0.308-1.964,0.832-2.754l6.922,6.922C8.964,11.692,8.019,12,7,12z"/>
    </symbol>
    <symbol id="icon-jm-heart" viewBox="0 0 14 14">
        <path fill="currentColor" d="M7,1.958c-2-3-7-2.128-7,1.872c0,3,4,7,4,7s2.417,2.48,3,3c0.583-0.52,3-3,3-3s4-4,4-7C14-0.169,9-1.042,7,1.958z"/>
    </symbol>
    <symbol id="icon-jm-home" viewBox="0 0 14 14">
        <polygon fill="currentColor" points="7,0 0,7 2,7 2,14 5,14 5,9 9,9 9,14 12,14 12,7 14,7 "/>
    </symbol>
    <symbol id="icon-jm-info" viewBox="0 0 14 14">
        <path fill="currentColor" d="M7,0C3.134,0,0,3.134,0,7s3.134,7,7,7s7-3.134,7-7S10.866,0,7,0z M7,2c0.552,0,1,0.447,1,1S7.552,4,7,4S6,3.553,6,3
	S6.448,2,7,2z M9,11H5v-1h1V6H5V5h3v5h1V11z"/>
    </symbol>
    <symbol id="icon-jm-location" viewBox="0 0 14 14">
        <path fill="currentColor" d="M7,0C4.791,0,3,1.791,3,4c0,2,4,10,4,10s4-8,4-10C11,1.791,9.209,0,7,0z M7,6C5.896,6,5,5.104,5,4s0.896-2,2-2
	c1.104,0,2,0.896,2,2S8.104,6,7,6z"/>
    </symbol>
    <symbol id="icon-jm-mail" viewBox="0 0 14 14">
        <path fill="currentColor" d="M0,3.75V12h14V3.75L7,9L0,3.75z M14,2H0l7,5L14,2z"/>
    </symbol>
    <symbol id="icon-jm-navigation" viewBox="0 0 14 14">
        <polygon fill="currentColor" points="13,1 0,6 7,7 8,14 "/>
    </symbol>
    <symbol id="icon-jm-phone" viewBox="0 0 14 14">
        <path fill="currentColor" d="M6.949,9.182C6.175,8.549,5.281,7.697,4.507,6.736C3.963,6.063,3.483,5.355,3.979,4.858l-3.482-3.48
	c-0.508,0.634-1.633,3.654,3.188,8.598c5.08,5.211,8.356,4.097,8.92,3.511l-3.396-3.399C8.734,10.561,8.123,10.139,6.949,9.182z
	 M13.83,11.512v-0.004c0,0-2.648-2.646-2.649-2.647c-0.21-0.212-0.546-0.205-0.754,0.002L9.465,9.823l3.402,3.407
	c0,0,0.963-0.961,0.961-0.961l0.002-0.002C14.053,12.049,14.031,11.713,13.83,11.512z M5.202,3.636V3.634
	c0.222-0.222,0.2-0.557,0-0.758V2.873c0,0-2.726-2.725-2.727-2.726c-0.21-0.21-0.545-0.205-0.753,0.001L0.761,1.113L4.24,4.595
	C4.241,4.596,5.202,3.637,5.202,3.636z"/>
    </symbol>
    <symbol id="icon-jm-power" viewBox="0 0 14 14">
        <path fill="currentColor" d="M11.243,2.408c-0.392-0.401-1.024-0.401-1.415,0c-0.391,0.401-0.391,1.054,0,1.455C10.584,4.642,11,5.675,11,6.773
	s-0.416,2.133-1.172,2.91c-1.512,1.558-4.145,1.558-5.656,0C3.416,8.904,3,7.872,3,6.773C3,5.673,3.416,4.64,4.172,3.863
	c0.39-0.401,0.39-1.054,0-1.455c-0.391-0.401-1.024-0.401-1.415,0C1.624,3.574,1,5.125,1,6.773c0,1.647,0.624,3.199,1.757,4.365
	c1.134,1.166,2.64,1.809,4.243,1.809c1.604,0,3.109-0.645,4.243-1.811C12.376,9.975,13,8.423,13,6.773
	C13,5.125,12.376,3.574,11.243,2.408z M7,8.053c0.553,0,1-0.445,1-1v-6c0-0.553-0.447-1-1-1c-0.553,0-1,0.447-1,1v6
	C6,7.604,6.447,8.053,7,8.053z"/>
    </symbol>
    <symbol id="icon-jm-recycle" viewBox="0 0 14 14">
        <path fill="currentColor" d="M3,7h1L2,4L0,7h1c0,3.313,2.687,6,6,6c0.702,0,1.374-0.127,2-0.35v-2.205C8.41,10.789,7.732,11,7,11C4.791,11,3,9.209,3,7z
	 M13,7c0-3.313-2.688-6-6-6C6.298,1,5.626,1.127,5,1.349v2.206C5.59,3.211,6.268,3,7,3c2.209,0,4,1.791,4,4h-1l2,3l2-3H13z"/>
    </symbol>
    <symbol id="icon-jm-refresh" viewBox="0 0 14 14">
        <path fill="currentColor" d="M14.001,6.001v-6l-2.06,2.06c-0.423-0.424-0.897-0.809-1.44-1.122C7.153-0.994,2.872,0.153,0.939,3.501
	c-1.933,3.348-0.786,7.629,2.562,9.562c3.348,1.933,7.629,0.785,9.562-2.562l-1.732-1c-1.381,2.392-4.438,3.211-6.83,1.83
	s-3.211-4.438-1.83-6.83s4.438-3.211,6.83-1.83c0.389,0.225,0.718,0.506,1.02,0.81l-2.52,2.52H14.001z"/>
    </symbol>
    <symbol id="icon-jm-search" viewBox="0 0 14 14">
        <path fill="currentColor" d="M10.171,8.766c0.617-0.888,0.979-1.964,0.979-3.126c0-3.037-2.463-5.5-5.5-5.5s-5.5,2.463-5.5,5.5s2.463,5.5,5.5,5.5
	c1.152,0,2.223-0.355,3.104-0.962l3.684,3.683l1.414-1.414L10.171,8.766z M5.649,9.14c-1.933,0-3.5-1.567-3.5-3.5
	c0-1.933,1.567-3.5,3.5-3.5c1.933,0,3.5,1.567,3.5,3.5C9.149,7.572,7.582,9.14,5.649,9.14z"/>
    </symbol>
    <symbol id="icon-jm-star" viewBox="0 0 14 14">
        <polygon fill="currentColor" points="14,5 9,5 7,0 5,5 0,5 4,8 2.625,13 7,10 11.375,13 10,8 "/>
    </symbol>
    <symbol id="icon-jm-tag" viewBox="0 0 14 14">
        <path fill="currentColor" d="M5,0H0v5l9,9l5-5L5,0z M3,4C2.447,4,2,3.553,2,3s0.447-1,1-1s1,0.447,1,1S3.553,4,3,4z"/>
    </symbol>
    <symbol id="icon-jm-video" viewBox="0 0 14 14">
        <path fill="currentColor" d="M8,0H2C0.896,0,0,0.896,0,2v6c0,1.104,0.896,2,2,2h6c1.104,0,2-0.896,2-2V5V2C10,0.896,9.104,0,8,0z M10,5l4,4V1L10,5z"/>
    </symbol>
</svg>